<svg width="32" height="32" viewBox="0 0 32 32" fill="none" xmlns="http://www.w3.org/2000/svg">
<path d="M29.0613 7.06411L25.0613 3.06411C24.9219 2.92427 24.7563 2.81331 24.574 2.7376C24.3917 2.6619 24.1962 2.62292 23.9988 2.62292C23.8013 2.62292 23.6059 2.6619 23.4235 2.7376C23.2412 2.81331 23.0756 2.92427 22.9363 3.06411L10.9363 15.0641C10.6559 15.3461 10.499 15.7278 10.5 16.1254V20.1254C10.5 20.5232 10.658 20.9047 10.9393 21.186C11.2206 21.4673 11.6022 21.6254 12 21.6254H16C16.197 21.6255 16.3922 21.5868 16.5743 21.5116C16.7564 21.4363 16.9218 21.3259 17.0613 21.1866L29.0613 9.18661C29.2007 9.0473 29.3114 8.88187 29.3868 8.69977C29.4623 8.51767 29.5012 8.32248 29.5012 8.12536C29.5012 7.92823 29.4623 7.73304 29.3868 7.55095C29.3114 7.36885 29.2007 7.20342 29.0613 7.06411ZM24 6.25036L25.875 8.12536L24.5 9.50036L22.625 7.62536L24 6.25036ZM15.375 18.6254H13.5V16.7504L20.5 9.75036L22.375 11.6254L15.375 18.6254ZM28.5 17.6966V26.1254C28.5 26.7884 28.2366 27.4243 27.7678 27.8931C27.2989 28.362 26.663 28.6254 26 28.6254H6C5.33696 28.6254 4.70107 28.362 4.23223 27.8931C3.76339 27.4243 3.5 26.7884 3.5 26.1254V6.12536C3.5 5.46232 3.76339 4.82643 4.23223 4.35759C4.70107 3.88875 5.33696 3.62536 6 3.62536H14.4288C14.8266 3.62536 15.2081 3.78339 15.4894 4.0647C15.7707 4.346 15.9288 4.72753 15.9288 5.12536C15.9288 5.52318 15.7707 5.90471 15.4894 6.18602C15.2081 6.46732 14.8266 6.62536 14.4288 6.62536H6.5V25.6254H25.5V17.6966C25.5 17.2988 25.658 16.9173 25.9393 16.6359C26.2206 16.3546 26.6022 16.1966 27 16.1966C27.3978 16.1966 27.7794 16.3546 28.0607 16.6359C28.342 16.9173 28.5 17.2988 28.5 17.6966Z" fill="#94A3B8"/>
</svg>
