<svg width="32" height="32" viewBox="0 0 32 32" fill="none" xmlns="http://www.w3.org/2000/svg">
<path d="M27 6.3125H22.5V4.8125C22.5 3.88424 22.1313 2.994 21.4749 2.33763C20.8185 1.68125 19.9283 1.3125 19 1.3125H13C12.0717 1.3125 11.1815 1.68125 10.5251 2.33763C9.86875 2.994 9.5 3.88424 9.5 4.8125V6.3125H5C4.60218 6.3125 4.22064 6.47054 3.93934 6.75184C3.65804 7.03314 3.5 7.41468 3.5 7.8125C3.5 8.21032 3.65804 8.59186 3.93934 8.87316C4.22064 9.15446 4.60218 9.3125 5 9.3125H5.5V26.3125C5.5 26.9755 5.76339 27.6114 6.23223 28.0803C6.70107 28.5491 7.33696 28.8125 8 28.8125H24C24.663 28.8125 25.2989 28.5491 25.7678 28.0803C26.2366 27.6114 26.5 26.9755 26.5 26.3125V9.3125H27C27.3978 9.3125 27.7794 9.15446 28.0607 8.87316C28.342 8.59186 28.5 8.21032 28.5 7.8125C28.5 7.41468 28.342 7.03314 28.0607 6.75184C27.7794 6.47054 27.3978 6.3125 27 6.3125ZM12.5 4.8125C12.5 4.67989 12.5527 4.55271 12.6464 4.45895C12.7402 4.36518 12.8674 4.3125 13 4.3125H19C19.1326 4.3125 19.2598 4.36518 19.3536 4.45895C19.4473 4.55271 19.5 4.67989 19.5 4.8125V6.3125H12.5V4.8125ZM23.5 25.8125H8.5V9.3125H23.5V25.8125ZM14.5 13.3125V21.3125C14.5 21.7103 14.342 22.0919 14.0607 22.3732C13.7794 22.6545 13.3978 22.8125 13 22.8125C12.6022 22.8125 12.2206 22.6545 11.9393 22.3732C11.658 22.0919 11.5 21.7103 11.5 21.3125V13.3125C11.5 12.9147 11.658 12.5331 11.9393 12.2518C12.2206 11.9705 12.6022 11.8125 13 11.8125C13.3978 11.8125 13.7794 11.9705 14.0607 12.2518C14.342 12.5331 14.5 12.9147 14.5 13.3125ZM20.5 13.3125V21.3125C20.5 21.7103 20.342 22.0919 20.0607 22.3732C19.7794 22.6545 19.3978 22.8125 19 22.8125C18.6022 22.8125 18.2206 22.6545 17.9393 22.3732C17.658 22.0919 17.5 21.7103 17.5 21.3125V13.3125C17.5 12.9147 17.658 12.5331 17.9393 12.2518C18.2206 11.9705 18.6022 11.8125 19 11.8125C19.3978 11.8125 19.7794 11.9705 20.0607 12.2518C20.342 12.5331 20.5 12.9147 20.5 13.3125Z" fill="#EF4444"/>
</svg>
